<svg xmlns="http://www.w3.org/2000/svg" viewBox="0 0 390 844" width="390" height="844">
  <defs>
    <filter id="cardShadow" x="-10%" y="-10%" width="120%" height="130%">
      <feDropShadow dx="0" dy="2" stdDeviation="4" flood-opacity="0.1"/>
    </filter>
    <filter id="headerShadow" x="-10%" y="-10%" width="120%" height="150%">
      <feDropShadow dx="0" dy="2" stdDeviation="4" flood-opacity="0.15"/>
    </filter>
    <linearGradient id="primaryGradient" x1="0%" y1="0%" x2="100%" y2="0%">
      <stop offset="0%" style="stop-color:#3F51B5"/>
      <stop offset="100%" style="stop-color:#5C6BC0"/>
    </linearGradient>
  </defs>
  
  <!-- Background -->
  <rect width="390" height="844" fill="#F5F5F5"/>
  
  <!-- Status Bar -->
  <rect width="390" height="44" fill="#303F9F"/>
  <text x="24" y="30" font-family="Roboto, sans-serif" font-size="14" fill="white">9:41</text>
  <g transform="translate(320, 16)">
    <rect x="0" y="8" width="4" height="6" rx="1" fill="white" opacity="0.6"/>
    <rect x="6" y="5" width="4" height="9" rx="1" fill="white" opacity="0.8"/>
    <rect x="12" y="2" width="4" height="12" rx="1" fill="white"/>
    <rect x="18" y="0" width="4" height="14" rx="1" fill="white"/>
    <path d="M32 10 L38 10 M33.5 7 L36.5 7 M35 4 L35 4" stroke="white" stroke-width="2" stroke-linecap="round" fill="none"/>
    <rect x="46" y="3" width="22" height="10" rx="2" stroke="white" stroke-width="1.5" fill="none"/>
    <rect x="68" y="6" width="2" height="4" rx="1" fill="white"/>
    <rect x="48" y="5" width="16" height="6" rx="1" fill="white"/>
  </g>
  
  <!-- Header -->
  <rect y="44" width="390" height="56" fill="url(#primaryGradient)" filter="url(#headerShadow)"/>
  <text x="20" y="80" font-family="Roboto, sans-serif" font-size="20" font-weight="500" fill="white">VanishToDo</text>
  
  <!-- Menu Icon -->
  <g transform="translate(346, 60)">
    <rect y="0" width="24" height="3" rx="1.5" fill="white"/>
    <rect y="8" width="24" height="3" rx="1.5" fill="white"/>
    <rect y="16" width="24" height="3" rx="1.5" fill="white"/>
  </g>
  
  <!-- Input Section - Chip Style -->
  <rect x="16" y="116" width="358" height="168" rx="16" fill="white" filter="url(#cardShadow)"/>
  
  <!-- Input Field -->
  <rect x="32" y="132" width="326" height="48" rx="8" fill="#F5F5F5" stroke="#E0E0E0" stroke-width="1"/>
  <text x="48" y="162" font-family="Roboto, sans-serif" font-size="16" fill="#9E9E9E">タスクを入力...</text>
  
  <!-- Chip Options - All in one row -->
  <g transform="translate(32, 196)">
    <!-- Heavy Chip - Not Selected -->
    <g transform="translate(0, 0)">
      <rect width="52" height="36" rx="18" fill="white" stroke="#F44336" stroke-width="1.5"/>
      <circle cx="16" cy="18" r="6" fill="none" stroke="#F44336" stroke-width="1.5"/>
      <text x="28" y="24" font-family="Roboto, sans-serif" font-size="13" fill="#F44336">重</text>
    </g>
    
    <!-- Medium Chip - Selected -->
    <g transform="translate(62, 0)">
      <rect width="52" height="36" rx="18" fill="#FF9800"/>
      <circle cx="16" cy="18" r="6" fill="white"/>
      <circle cx="16" cy="18" r="3" fill="#FF9800"/>
      <text x="28" y="24" font-family="Roboto, sans-serif" font-size="13" font-weight="500" fill="white">中</text>
    </g>
    
    <!-- Light Chip - Not Selected -->
    <g transform="translate(124, 0)">
      <rect width="52" height="36" rx="18" fill="white" stroke="#4CAF50" stroke-width="1.5"/>
      <circle cx="16" cy="18" r="6" fill="none" stroke="#4CAF50" stroke-width="1.5"/>
      <text x="28" y="24" font-family="Roboto, sans-serif" font-size="13" fill="#4CAF50">軽</text>
    </g>
    
    <!-- Divider -->
    <line x1="190" y1="6" x2="190" y2="30" stroke="#E0E0E0" stroke-width="1"/>
    
    <!-- Due Date Chip - Not Selected -->
    <g transform="translate(204, 0)">
      <rect width="80" height="36" rx="18" fill="white" stroke="#2196F3" stroke-width="1.5"/>
      <circle cx="16" cy="18" r="6" fill="none" stroke="#2196F3" stroke-width="1.5"/>
      <!-- Calendar mini icon -->
      <g transform="translate(28, 10)">
        <rect width="12" height="10" rx="1" fill="none" stroke="#2196F3" stroke-width="1"/>
        <line x1="0" y1="4" x2="12" y2="4" stroke="#2196F3" stroke-width="1"/>
      </g>
      <text x="44" y="24" font-family="Roboto, sans-serif" font-size="13" fill="#2196F3">締切</text>
    </g>
    
    <!-- None Chip - Not Selected -->
    <g transform="translate(294, 0)">
      <rect width="52" height="36" rx="18" fill="white" stroke="#BDBDBD" stroke-width="1.5"/>
      <circle cx="16" cy="18" r="6" fill="none" stroke="#BDBDBD" stroke-width="1.5"/>
      <text x="28" y="24" font-family="Roboto, sans-serif" font-size="13" fill="#757575">−</text>
    </g>
  </g>
  
  <!-- Action Buttons -->
  <g transform="translate(32, 248)">
    <!-- Add Button -->
    <rect width="100" height="36" rx="18" fill="#3F51B5"/>
    <text x="36" y="24" font-family="Roboto, sans-serif" font-size="14" font-weight="500" fill="white">+ 追加</text>
    
    <!-- Analyze Button -->
    <rect x="116" width="120" height="36" rx="18" fill="white" stroke="#3F51B5" stroke-width="2"/>
    <text x="138" y="24" font-family="Roboto, sans-serif" font-size="14" font-weight="500" fill="#3F51B5">🤖 分析</text>
  </g>
  
  <!-- Design Note -->
  <rect x="260" y="116" width="110" height="24" rx="4" fill="#E1F5FE"/>
  <text x="270" y="132" font-family="Roboto, sans-serif" font-size="10" fill="#0277BD">案2: チップ形式</text>
  
  <!-- Task List Section -->
  <text x="20" y="312" font-family="Roboto, sans-serif" font-size="14" font-weight="500" fill="#757575">タスク一覧</text>
  
  <!-- Task Card 1 -->
  <g transform="translate(16, 324)">
    <rect width="358" height="76" rx="12" fill="white" filter="url(#cardShadow)"/>
    <rect x="16" y="26" width="24" height="24" rx="4" fill="none" stroke="#BDBDBD" stroke-width="2"/>
    <text x="56" y="34" font-family="Roboto, sans-serif" font-size="16" fill="#212121">メールを確認する</text>
    <text x="56" y="54" font-family="Roboto, sans-serif" font-size="12" fill="#9E9E9E">10:00作成</text>
    <rect x="290" y="22" width="48" height="24" rx="12" fill="#E8F5E9"/>
    <text x="302" y="39" font-family="Roboto, sans-serif" font-size="12" font-weight="500" fill="#4CAF50">軽</text>
  </g>
  
  <!-- Task Card 2 -->
  <g transform="translate(16, 408)">
    <rect width="358" height="76" rx="12" fill="white" filter="url(#cardShadow)"/>
    <rect x="16" y="26" width="24" height="24" rx="4" fill="none" stroke="#BDBDBD" stroke-width="2"/>
    <text x="56" y="34" font-family="Roboto, sans-serif" font-size="16" fill="#212121">プレゼン資料を作成する</text>
    <text x="56" y="54" font-family="Roboto, sans-serif" font-size="12" fill="#9E9E9E">昨日作成</text>
    <rect x="290" y="22" width="48" height="24" rx="12" fill="#FFEBEE"/>
    <text x="302" y="39" font-family="Roboto, sans-serif" font-size="12" font-weight="500" fill="#F44336">重</text>
  </g>
  
  <!-- Task Card 3 -->
  <g transform="translate(16, 492)">
    <rect width="358" height="76" rx="12" fill="white" filter="url(#cardShadow)"/>
    <rect x="16" y="26" width="24" height="24" rx="4" fill="none" stroke="#BDBDBD" stroke-width="2"/>
    <text x="56" y="34" font-family="Roboto, sans-serif" font-size="16" fill="#212121">買い物リストを作成</text>
    <text x="56" y="54" font-family="Roboto, sans-serif" font-size="12" fill="#9E9E9E">2時間前作成</text>
    <rect x="290" y="22" width="48" height="24" rx="12" fill="#FFF3E0"/>
    <text x="302" y="39" font-family="Roboto, sans-serif" font-size="12" font-weight="500" fill="#FF9800">中</text>
  </g>
  
  <!-- Task Card 4 - with Due Date -->
  <g transform="translate(16, 576)">
    <rect width="358" height="76" rx="12" fill="white" filter="url(#cardShadow)"/>
    <rect x="16" y="26" width="24" height="24" rx="4" fill="none" stroke="#BDBDBD" stroke-width="2"/>
    <text x="56" y="34" font-family="Roboto, sans-serif" font-size="16" fill="#212121">レポート提出</text>
    <text x="56" y="54" font-family="Roboto, sans-serif" font-size="12" fill="#9E9E9E">30分前作成</text>
    <rect x="260" y="22" width="78" height="24" rx="12" fill="#E3F2FD"/>
    <text x="272" y="39" font-family="Roboto, sans-serif" font-size="12" font-weight="500" fill="#2196F3">12/20締切</text>
  </g>
  
  <!-- Task Card 5 -->
  <g transform="translate(16, 660)">
    <rect width="358" height="76" rx="12" fill="white" filter="url(#cardShadow)"/>
    <rect x="16" y="26" width="24" height="24" rx="4" fill="none" stroke="#BDBDBD" stroke-width="2"/>
    <text x="56" y="34" font-family="Roboto, sans-serif" font-size="16" fill="#212121">ミーティング準備</text>
    <text x="56" y="54" font-family="Roboto, sans-serif" font-size="12" fill="#9E9E9E">3日前作成</text>
    <rect x="290" y="22" width="48" height="24" rx="12" fill="#FFF3E0"/>
    <text x="302" y="39" font-family="Roboto, sans-serif" font-size="12" font-weight="500" fill="#FF9800">中</text>
  </g>
  
  <!-- Filter Tab Bar -->
  <rect y="756" width="390" height="88" fill="white" filter="url(#headerShadow)"/>
  
  <!-- Filter Tabs -->
  <g transform="translate(0, 768)">
    <g transform="translate(20, 0)">
      <rect width="60" height="36" rx="18" fill="#E8EAF6"/>
      <text x="12" y="24" font-family="Roboto, sans-serif" font-size="14" font-weight="500" fill="#3F51B5">すべて</text>
    </g>
    <g transform="translate(90, 0)">
      <rect width="50" height="36" rx="18" fill="transparent"/>
      <text x="18" y="24" font-family="Roboto, sans-serif" font-size="14" fill="#757575">重</text>
    </g>
    <g transform="translate(150, 0)">
      <rect width="50" height="36" rx="18" fill="transparent"/>
      <text x="18" y="24" font-family="Roboto, sans-serif" font-size="14" fill="#757575">中</text>
    </g>
    <g transform="translate(210, 0)">
      <rect width="50" height="36" rx="18" fill="transparent"/>
      <text x="18" y="24" font-family="Roboto, sans-serif" font-size="14" fill="#757575">軽</text>
    </g>
    <g transform="translate(270, 0)">
      <rect width="60" height="36" rx="18" fill="transparent"/>
      <text x="12" y="24" font-family="Roboto, sans-serif" font-size="14" fill="#757575">締切</text>
    </g>
  </g>
  
  <!-- Home Indicator -->
  <rect x="139" y="824" width="112" height="5" rx="2.5" fill="#212121" opacity="0.3"/>
</svg>
